<svg width="256" height="256" viewBox="0 0 256 256" fill="none" xmlns="http://www.w3.org/2000/svg">
  <!-- Smooth iOS-style squircle canvas with premium gradient -->
  <rect width="256" height="256" rx="64" fill="url(#rocketGrad)" />
  
  <!-- Sleek premium minimalist rocket icon angled beautifully -->
  <g transform="translate(128, 128) rotate(45) translate(-128, -128)">
    <!-- Main rocket fuselage -->
    <path d="M128 50C128 50 148 85 148 135C148 150 142 165 128 175C114 165 108 150 108 135C108 85 128 50 128 50Z" fill="white" />
    
    <!-- Left stabilizer wing -->
    <path d="M106 145C96 150 86 168 86 168C86 168 103 166 111 157L106 145Z" fill="white" opacity="0.9" />
    
    <!-- Right stabilizer wing -->
    <path d="M150 145C160 150 170 168 170 168C170 168 153 166 145 157L150 145Z" fill="white" opacity="0.9" />
    
    <!-- Round cockpit window -->
    <circle cx="128" cy="105" r="10" fill="url(#windowGrad)" />
    
    <!-- Exquisite fire exhaust flame -->
    <path d="M128 178C128 178 136 190 128 206C120 190 128 178 128 178Z" fill="#ff7a00" opacity="0.95" />
    <path d="M128 178C128 178 132 186 128 196C124 186 128 178 128 178Z" fill="#ffc800" />
  </g>
  
  <defs>
    <!-- Background Gradient: Indigo to Emerald/Cyan -->
    <linearGradient id="rocketGrad" x1="0" y1="0" x2="256" y2="256" gradientUnits="userSpaceOnUse">
      <stop offset="0%" stop-color="#6366f1" />
      <stop offset="100%" stop-color="#10b981" />
    </linearGradient>
    
    <!-- Cockpit Window Gradient: Teal to White -->
    <linearGradient id="windowGrad" x1="118" y1="95" x2="138" y2="115" gradientUnits="userSpaceOnUse">
      <stop offset="0%" stop-color="#06b6d4" />
      <stop offset="100%" stop-color="#e0f7fa" />
    </linearGradient>
  </defs>
</svg>
